// *****************************************************************************
// ***************************    C Source Code     ****************************
// *****************************************************************************
//   DESIGNER NAME:  Bruce Link
//
//         VERSION:  1.0
//
//       FILE NAME:  demo_melodies.h
//
//-----------------------------------------------------------------------------
// DESCRIPTION
//    This header defines several demo melodies as arrays of musical notes with
//    their corresponding frequencies (in Hz) and durations (in milliseconds).
//    Each melody is represented as an array of `song_struct_t` structures,
//    which include the note name, frequency, and duration.
//
//    Included melodies are:
//      - Imperial March
//      - Mario Theme
//      - Fur Elise (simplified intro)
//
//    The note frequencies used are defined in "pitches.h", based on equal
//    temperament tuning with A4 = 440 Hz.
//
//    These melodies are intended for use with tone-generating functions on
//    microcontrollers and passive buzzers or speakers.
//
//-----------------------------------------------------------------------------
// DISCLAIMER
//    This code was developed for educational purposes as part of the CSC202
//    course and is provided "as is" without warranties of any kind, whether
//    express, implied, or statutory.
//
//    The author and organization do not warrant the accuracy, completeness, or
//    reliability of the code. The author and organization shall not be liable
//    for any direct, indirect, incidental, special, exemplary, or consequential
//    damages arising out of the use of or inability to use the code, even if
//    advised of the possibility of such damages.
//
//    Use of this code is at your own risk, and it is recommended to validate
//    and adapt the code for your specific application and hardware
//    requirements.
//
// Copyright (c) 2025 by Bruce Link
//    You may use, edit, run or distribute this file as long as the above
//    copyright notice remains
// *****************************************************************************
//******************************************************************************

#ifndef __DEMO_MELODIES_H__
#define __DEMO_MELODIES_H__
#include "minecraft_melodies.h"
#define EIGHTH_NOTE_DURATION 113
#define QUARTER_NOTE_LENGTH 227

//-----------------------------------------------------------------------------
// Loads standard C include files
//-----------------------------------------------------------------------------
#include "clock.h"
#include "pitches.h"
#include <stdint.h>

typedef struct
{
  const char *note;         // Note name as string
  uint16_t    freq;         // Frequency in Hz (REST = 0)
  uint16_t    duration;     // Duration in milliseconds
  uint16_t    note_spacing; // Space between each note

} song_struct_t;

#define MOOG_CITY_LENGTH 96
// Moog city is at 132bpm

const song_struct_t moog_city[MOOG_CITY_LENGTH] = {
    {"E4", NOTE_E4, EIGHTH_NOTE_DURATION, EIGHTH_NOTE_DURATION},
    {"A4", NOTE_A4, EIGHTH_NOTE_DURATION, EIGHTH_NOTE_DURATION},
    {"B4", NOTE_B4, EIGHTH_NOTE_DURATION, EIGHTH_NOTE_DURATION},
    {"E5", NOTE_E5, EIGHTH_NOTE_DURATION, EIGHTH_NOTE_DURATION},
    {"G5", NOTE_G5, EIGHTH_NOTE_DURATION, EIGHTH_NOTE_DURATION},
    {"B5", NOTE_B5, EIGHTH_NOTE_DURATION, EIGHTH_NOTE_DURATION},
    {"D6", NOTE_D6, EIGHTH_NOTE_DURATION, EIGHTH_NOTE_DURATION},
    {"F#6", NOTE_FS6, EIGHTH_NOTE_DURATION, EIGHTH_NOTE_DURATION},
    {"E4", NOTE_E4, EIGHTH_NOTE_DURATION, EIGHTH_NOTE_DURATION},
    {"A4", NOTE_A4, EIGHTH_NOTE_DURATION, EIGHTH_NOTE_DURATION},
    {"B4", NOTE_B4, EIGHTH_NOTE_DURATION, EIGHTH_NOTE_DURATION},
    {"E5", NOTE_E5, EIGHTH_NOTE_DURATION, EIGHTH_NOTE_DURATION},
    {"G5", NOTE_G5, EIGHTH_NOTE_DURATION, EIGHTH_NOTE_DURATION},
    {"B5", NOTE_B5, EIGHTH_NOTE_DURATION, EIGHTH_NOTE_DURATION},
    {"D6", NOTE_D6, EIGHTH_NOTE_DURATION, EIGHTH_NOTE_DURATION},
    {"F#6", NOTE_FS6, EIGHTH_NOTE_DURATION, EIGHTH_NOTE_DURATION},
    {"E4", NOTE_E4, EIGHTH_NOTE_DURATION, EIGHTH_NOTE_DURATION},
    {"A4", NOTE_A4, EIGHTH_NOTE_DURATION, EIGHTH_NOTE_DURATION},
    {"B4", NOTE_B4, EIGHTH_NOTE_DURATION, EIGHTH_NOTE_DURATION},
    {"E5", NOTE_E5, EIGHTH_NOTE_DURATION, EIGHTH_NOTE_DURATION},
    {"G5", NOTE_G5, EIGHTH_NOTE_DURATION, EIGHTH_NOTE_DURATION},
    {"B5", NOTE_B5, EIGHTH_NOTE_DURATION, EIGHTH_NOTE_DURATION},
    {"D6", NOTE_D6, EIGHTH_NOTE_DURATION, EIGHTH_NOTE_DURATION},
    {"F#6", NOTE_FS6, EIGHTH_NOTE_DURATION, EIGHTH_NOTE_DURATION},
    {"E4", NOTE_E4, EIGHTH_NOTE_DURATION, EIGHTH_NOTE_DURATION},
    {"A4", NOTE_A4, EIGHTH_NOTE_DURATION, EIGHTH_NOTE_DURATION},
    {"B4", NOTE_B4, EIGHTH_NOTE_DURATION, EIGHTH_NOTE_DURATION},
    {"E5", NOTE_E5, EIGHTH_NOTE_DURATION, EIGHTH_NOTE_DURATION},
    {"G5", NOTE_G5, EIGHTH_NOTE_DURATION, EIGHTH_NOTE_DURATION},
    {"B5", NOTE_B5, EIGHTH_NOTE_DURATION, EIGHTH_NOTE_DURATION},
    {"D6", NOTE_D6, EIGHTH_NOTE_DURATION, EIGHTH_NOTE_DURATION},
    {"F#6", NOTE_FS6, EIGHTH_NOTE_DURATION, EIGHTH_NOTE_DURATION},
    {"E4", NOTE_E4, EIGHTH_NOTE_DURATION, EIGHTH_NOTE_DURATION},
    {"A4", NOTE_A4, EIGHTH_NOTE_DURATION, EIGHTH_NOTE_DURATION},
    {"B4", NOTE_B4, EIGHTH_NOTE_DURATION, EIGHTH_NOTE_DURATION},
    {"E5", NOTE_E5, EIGHTH_NOTE_DURATION, EIGHTH_NOTE_DURATION},
    {"G5", NOTE_G5, EIGHTH_NOTE_DURATION, EIGHTH_NOTE_DURATION},
    {"B5", NOTE_B5, EIGHTH_NOTE_DURATION, EIGHTH_NOTE_DURATION},
    {"D6", NOTE_D6, EIGHTH_NOTE_DURATION, EIGHTH_NOTE_DURATION},
    {"F#6", NOTE_FS6, EIGHTH_NOTE_DURATION, EIGHTH_NOTE_DURATION},
    {"E4", NOTE_E4, EIGHTH_NOTE_DURATION, EIGHTH_NOTE_DURATION},
    {"A4", NOTE_A4, EIGHTH_NOTE_DURATION, EIGHTH_NOTE_DURATION},
    {"B4", NOTE_B4, EIGHTH_NOTE_DURATION, EIGHTH_NOTE_DURATION},
    {"E5", NOTE_E5, EIGHTH_NOTE_DURATION, EIGHTH_NOTE_DURATION},
    {"G5", NOTE_G5, EIGHTH_NOTE_DURATION, EIGHTH_NOTE_DURATION},
    {"B5", NOTE_B5, EIGHTH_NOTE_DURATION, EIGHTH_NOTE_DURATION},
    {"D6", NOTE_D6, EIGHTH_NOTE_DURATION, EIGHTH_NOTE_DURATION},
    {"F#6", NOTE_FS6, EIGHTH_NOTE_DURATION, EIGHTH_NOTE_DURATION},
    {"E4", NOTE_E4, EIGHTH_NOTE_DURATION, EIGHTH_NOTE_DURATION},
    {"A4", NOTE_A4, EIGHTH_NOTE_DURATION, EIGHTH_NOTE_DURATION},
    {"B4", NOTE_B4, EIGHTH_NOTE_DURATION, EIGHTH_NOTE_DURATION},
    {"E5", NOTE_E5, EIGHTH_NOTE_DURATION, EIGHTH_NOTE_DURATION},
    {"G5", NOTE_G5, EIGHTH_NOTE_DURATION, EIGHTH_NOTE_DURATION},
    {"B5", NOTE_B5, EIGHTH_NOTE_DURATION, EIGHTH_NOTE_DURATION},
    {"D6", NOTE_D6, EIGHTH_NOTE_DURATION, EIGHTH_NOTE_DURATION},
    {"F#6", NOTE_FS6, EIGHTH_NOTE_DURATION, EIGHTH_NOTE_DURATION},
    {"E4", NOTE_E4, EIGHTH_NOTE_DURATION, EIGHTH_NOTE_DURATION},
    {"A4", NOTE_A4, EIGHTH_NOTE_DURATION, EIGHTH_NOTE_DURATION},
    {"B4", NOTE_B4, EIGHTH_NOTE_DURATION, EIGHTH_NOTE_DURATION},
    {"E5", NOTE_E5, EIGHTH_NOTE_DURATION, EIGHTH_NOTE_DURATION},
    {"G5", NOTE_G5, EIGHTH_NOTE_DURATION, EIGHTH_NOTE_DURATION},
    {"B5", NOTE_B5, EIGHTH_NOTE_DURATION, EIGHTH_NOTE_DURATION},
    {"D6", NOTE_D6, EIGHTH_NOTE_DURATION, EIGHTH_NOTE_DURATION},
    {"F#6", NOTE_FS6, EIGHTH_NOTE_DURATION, EIGHTH_NOTE_DURATION},
    {"E4", NOTE_E4, EIGHTH_NOTE_DURATION, EIGHTH_NOTE_DURATION},
    {"A4", NOTE_A4, EIGHTH_NOTE_DURATION, EIGHTH_NOTE_DURATION},
    {"B4", NOTE_B4, EIGHTH_NOTE_DURATION, EIGHTH_NOTE_DURATION},
    {"E5", NOTE_E5, EIGHTH_NOTE_DURATION, EIGHTH_NOTE_DURATION},
    {"G5", NOTE_G5, EIGHTH_NOTE_DURATION, EIGHTH_NOTE_DURATION},
    {"B5", NOTE_B5, EIGHTH_NOTE_DURATION, EIGHTH_NOTE_DURATION},
    {"D6", NOTE_D6, EIGHTH_NOTE_DURATION, EIGHTH_NOTE_DURATION},
    {"G6", NOTE_G6, EIGHTH_NOTE_DURATION, EIGHTH_NOTE_DURATION},
    {"E4", NOTE_E4, EIGHTH_NOTE_DURATION, EIGHTH_NOTE_DURATION},
    {"A4", NOTE_A4, EIGHTH_NOTE_DURATION, EIGHTH_NOTE_DURATION},
    {"B4", NOTE_B4, EIGHTH_NOTE_DURATION, EIGHTH_NOTE_DURATION},
    {"E5", NOTE_E5, EIGHTH_NOTE_DURATION, EIGHTH_NOTE_DURATION},
    {"G5", NOTE_G5, EIGHTH_NOTE_DURATION, EIGHTH_NOTE_DURATION},
    {"B5", NOTE_B5, EIGHTH_NOTE_DURATION, EIGHTH_NOTE_DURATION},
    {"D6", NOTE_D6, EIGHTH_NOTE_DURATION, EIGHTH_NOTE_DURATION},
    {"G6", NOTE_G6, EIGHTH_NOTE_DURATION, EIGHTH_NOTE_DURATION},
    {"E4", NOTE_E4, EIGHTH_NOTE_DURATION, EIGHTH_NOTE_DURATION},
    {"A4", NOTE_A4, EIGHTH_NOTE_DURATION, EIGHTH_NOTE_DURATION},
    {"B4", NOTE_B4, EIGHTH_NOTE_DURATION, EIGHTH_NOTE_DURATION},
    {"E5", NOTE_E5, EIGHTH_NOTE_DURATION, EIGHTH_NOTE_DURATION},
    {"G5", NOTE_G5, EIGHTH_NOTE_DURATION, EIGHTH_NOTE_DURATION},
    {"B5", NOTE_B5, EIGHTH_NOTE_DURATION, EIGHTH_NOTE_DURATION},
    {"D6", NOTE_D6, EIGHTH_NOTE_DURATION, EIGHTH_NOTE_DURATION},
    {"G6", NOTE_G6, EIGHTH_NOTE_DURATION, EIGHTH_NOTE_DURATION},
    {"E4", NOTE_E4, EIGHTH_NOTE_DURATION, EIGHTH_NOTE_DURATION},
    {"A4", NOTE_A4, EIGHTH_NOTE_DURATION, EIGHTH_NOTE_DURATION},
    {"B4", NOTE_B4, EIGHTH_NOTE_DURATION, EIGHTH_NOTE_DURATION},
    {"E5", NOTE_E5, EIGHTH_NOTE_DURATION, EIGHTH_NOTE_DURATION},
    {"G5", NOTE_G5, EIGHTH_NOTE_DURATION, EIGHTH_NOTE_DURATION},
    {"B5", NOTE_B5, EIGHTH_NOTE_DURATION, EIGHTH_NOTE_DURATION},
    {"D6", NOTE_D6, EIGHTH_NOTE_DURATION, EIGHTH_NOTE_DURATION},
    {"G6", NOTE_G6, EIGHTH_NOTE_DURATION, EIGHTH_NOTE_DURATION}};

#define ARIA_MATH_LENGTH 80

const song_struct_t aria_math[ARIA_MATH_LENGTH] = {

    {"F3", NOTE_F3, EIGHTH_NOTE_DURATION, EIGHTH_NOTE_DURATION},
    {"E4", NOTE_E4, EIGHTH_NOTE_DURATION, EIGHTH_NOTE_DURATION},
    {"A4", NOTE_A4, EIGHTH_NOTE_DURATION, EIGHTH_NOTE_DURATION},
    {"A3", NOTE_A3, EIGHTH_NOTE_DURATION, EIGHTH_NOTE_DURATION},
    {"E4", NOTE_E4, EIGHTH_NOTE_DURATION, EIGHTH_NOTE_DURATION},
    {"A3", NOTE_A3, EIGHTH_NOTE_DURATION, EIGHTH_NOTE_DURATION},
    {"C4", NOTE_C4, EIGHTH_NOTE_DURATION, EIGHTH_NOTE_DURATION},
    {"F4", NOTE_F4, EIGHTH_NOTE_DURATION, EIGHTH_NOTE_DURATION},
    {"E4", NOTE_E4, EIGHTH_NOTE_DURATION, EIGHTH_NOTE_DURATION},
    {"C4", NOTE_C4, EIGHTH_NOTE_DURATION, EIGHTH_NOTE_DURATION},

    {"F3", NOTE_F3, EIGHTH_NOTE_DURATION, EIGHTH_NOTE_DURATION},
    {"E4", NOTE_E4, EIGHTH_NOTE_DURATION, EIGHTH_NOTE_DURATION},
    {"A4", NOTE_A4, EIGHTH_NOTE_DURATION, EIGHTH_NOTE_DURATION},
    {"A3", NOTE_A3, EIGHTH_NOTE_DURATION, EIGHTH_NOTE_DURATION},
    {"E4", NOTE_E4, EIGHTH_NOTE_DURATION, EIGHTH_NOTE_DURATION},
    {"A3", NOTE_A3, EIGHTH_NOTE_DURATION, EIGHTH_NOTE_DURATION},
    {"C4", NOTE_C4, EIGHTH_NOTE_DURATION, EIGHTH_NOTE_DURATION},
    {"F4", NOTE_F4, EIGHTH_NOTE_DURATION, EIGHTH_NOTE_DURATION},
    {"E4", NOTE_E4, EIGHTH_NOTE_DURATION, EIGHTH_NOTE_DURATION},
    {"C4", NOTE_C4, EIGHTH_NOTE_DURATION, EIGHTH_NOTE_DURATION},

    {"F3", NOTE_F3, EIGHTH_NOTE_DURATION, EIGHTH_NOTE_DURATION},
    {"E4", NOTE_E4, EIGHTH_NOTE_DURATION, EIGHTH_NOTE_DURATION},
    {"A4", NOTE_A4, EIGHTH_NOTE_DURATION, EIGHTH_NOTE_DURATION},
    {"A3", NOTE_A3, EIGHTH_NOTE_DURATION, EIGHTH_NOTE_DURATION},
    {"E4", NOTE_E4, EIGHTH_NOTE_DURATION, EIGHTH_NOTE_DURATION},
    {"A3", NOTE_A3, EIGHTH_NOTE_DURATION, EIGHTH_NOTE_DURATION},
    {"C4", NOTE_C4, EIGHTH_NOTE_DURATION, EIGHTH_NOTE_DURATION},
    {"F4", NOTE_F4, EIGHTH_NOTE_DURATION, EIGHTH_NOTE_DURATION},
    {"E4", NOTE_E4, EIGHTH_NOTE_DURATION, EIGHTH_NOTE_DURATION},
    {"C4", NOTE_C4, EIGHTH_NOTE_DURATION, EIGHTH_NOTE_DURATION},

    {"F3", NOTE_F3, EIGHTH_NOTE_DURATION, EIGHTH_NOTE_DURATION},
    {"E4", NOTE_E4, EIGHTH_NOTE_DURATION, EIGHTH_NOTE_DURATION},
    {"A4", NOTE_A4, EIGHTH_NOTE_DURATION, EIGHTH_NOTE_DURATION},
    {"A3", NOTE_A3, EIGHTH_NOTE_DURATION, EIGHTH_NOTE_DURATION},
    {"E4", NOTE_E4, EIGHTH_NOTE_DURATION, EIGHTH_NOTE_DURATION},
    {"A3", NOTE_A3, EIGHTH_NOTE_DURATION, EIGHTH_NOTE_DURATION},
    {"C4", NOTE_C4, EIGHTH_NOTE_DURATION, EIGHTH_NOTE_DURATION},
    {"F4", NOTE_F4, EIGHTH_NOTE_DURATION, EIGHTH_NOTE_DURATION},
    {"E4", NOTE_E4, EIGHTH_NOTE_DURATION, EIGHTH_NOTE_DURATION},
    {"C4", NOTE_C4, EIGHTH_NOTE_DURATION, EIGHTH_NOTE_DURATION},

    {"F3", NOTE_F3, EIGHTH_NOTE_DURATION, EIGHTH_NOTE_DURATION},
    {"E4", NOTE_E4, EIGHTH_NOTE_DURATION, EIGHTH_NOTE_DURATION},
    {"A4", NOTE_A4, EIGHTH_NOTE_DURATION, EIGHTH_NOTE_DURATION},
    {"A3", NOTE_A3, EIGHTH_NOTE_DURATION, EIGHTH_NOTE_DURATION},
    {"E4", NOTE_E4, EIGHTH_NOTE_DURATION, EIGHTH_NOTE_DURATION},
    {"A3", NOTE_A3, EIGHTH_NOTE_DURATION, EIGHTH_NOTE_DURATION},
    {"C4", NOTE_C4, EIGHTH_NOTE_DURATION, EIGHTH_NOTE_DURATION},
    {"F4", NOTE_F4, EIGHTH_NOTE_DURATION, EIGHTH_NOTE_DURATION},
    {"E4", NOTE_E4, EIGHTH_NOTE_DURATION, EIGHTH_NOTE_DURATION},
    {"C4", NOTE_C4, EIGHTH_NOTE_DURATION, EIGHTH_NOTE_DURATION},

    {"F3", NOTE_F3, EIGHTH_NOTE_DURATION, EIGHTH_NOTE_DURATION},
    {"E4", NOTE_E4, EIGHTH_NOTE_DURATION, EIGHTH_NOTE_DURATION},
    {"A4", NOTE_A4, EIGHTH_NOTE_DURATION, EIGHTH_NOTE_DURATION},
    {"A3", NOTE_A3, EIGHTH_NOTE_DURATION, EIGHTH_NOTE_DURATION},
    {"E4", NOTE_E4, EIGHTH_NOTE_DURATION, EIGHTH_NOTE_DURATION},
    {"A3", NOTE_A3, EIGHTH_NOTE_DURATION, EIGHTH_NOTE_DURATION},
    {"C4", NOTE_C4, EIGHTH_NOTE_DURATION, EIGHTH_NOTE_DURATION},
    {"F4", NOTE_F4, EIGHTH_NOTE_DURATION, EIGHTH_NOTE_DURATION},
    {"E4", NOTE_E4, EIGHTH_NOTE_DURATION, EIGHTH_NOTE_DURATION},
    {"C4", NOTE_C4, EIGHTH_NOTE_DURATION, EIGHTH_NOTE_DURATION},

    {"F3", NOTE_F3, EIGHTH_NOTE_DURATION, EIGHTH_NOTE_DURATION},
    {"E4", NOTE_E4, EIGHTH_NOTE_DURATION, EIGHTH_NOTE_DURATION},
    {"A4", NOTE_A4, EIGHTH_NOTE_DURATION, EIGHTH_NOTE_DURATION},
    {"A3", NOTE_A3, EIGHTH_NOTE_DURATION, EIGHTH_NOTE_DURATION},
    {"E4", NOTE_E4, EIGHTH_NOTE_DURATION, EIGHTH_NOTE_DURATION},
    {"A3", NOTE_A3, EIGHTH_NOTE_DURATION, EIGHTH_NOTE_DURATION},
    {"C4", NOTE_C4, EIGHTH_NOTE_DURATION, EIGHTH_NOTE_DURATION},
    {"F4", NOTE_F4, EIGHTH_NOTE_DURATION, EIGHTH_NOTE_DURATION},
    {"E4", NOTE_E4, EIGHTH_NOTE_DURATION, EIGHTH_NOTE_DURATION},
    {"C4", NOTE_C4, EIGHTH_NOTE_DURATION, EIGHTH_NOTE_DURATION},

    {"F3", NOTE_F3, EIGHTH_NOTE_DURATION, EIGHTH_NOTE_DURATION},
    {"E4", NOTE_E4, EIGHTH_NOTE_DURATION, EIGHTH_NOTE_DURATION},
    {"A4", NOTE_A4, EIGHTH_NOTE_DURATION, EIGHTH_NOTE_DURATION},
    {"A3", NOTE_A3, EIGHTH_NOTE_DURATION, EIGHTH_NOTE_DURATION},
    {"E4", NOTE_E4, EIGHTH_NOTE_DURATION, EIGHTH_NOTE_DURATION},
    {"A3", NOTE_A3, EIGHTH_NOTE_DURATION, EIGHTH_NOTE_DURATION},
    {"C4", NOTE_C4, EIGHTH_NOTE_DURATION, EIGHTH_NOTE_DURATION},
    {"F4", NOTE_F4, EIGHTH_NOTE_DURATION, EIGHTH_NOTE_DURATION},
    {"E4", NOTE_E4, EIGHTH_NOTE_DURATION, EIGHTH_NOTE_DURATION},
    {"C4", NOTE_C4, EIGHTH_NOTE_DURATION, EIGHTH_NOTE_DURATION}};

#define LIVING_MICE_LENGTH 32

const song_struct_t living_mice[LIVING_MICE_LENGTH] = {

    {"G3", NOTE_G3, EIGHTH_NOTE_DURATION, EIGHTH_NOTE_DURATION},
    {"A3", NOTE_A3, EIGHTH_NOTE_DURATION, EIGHTH_NOTE_DURATION},
    {"E4", NOTE_E4, EIGHTH_NOTE_DURATION, EIGHTH_NOTE_DURATION},
    {"C4", NOTE_C4, EIGHTH_NOTE_DURATION, EIGHTH_NOTE_DURATION},
    {"E4", NOTE_E4, EIGHTH_NOTE_DURATION, EIGHTH_NOTE_DURATION},
    {"G3", NOTE_G3, EIGHTH_NOTE_DURATION, EIGHTH_NOTE_DURATION},
    {"A3", NOTE_A3, EIGHTH_NOTE_DURATION, EIGHTH_NOTE_DURATION},
    {"E4", NOTE_E4, EIGHTH_NOTE_DURATION, EIGHTH_NOTE_DURATION},

    {"C4", NOTE_C4, EIGHTH_NOTE_DURATION, EIGHTH_NOTE_DURATION},
    {"G3", NOTE_G3, EIGHTH_NOTE_DURATION, EIGHTH_NOTE_DURATION},
    {"A3", NOTE_A3, EIGHTH_NOTE_DURATION, EIGHTH_NOTE_DURATION},
    {"E4", NOTE_E4, EIGHTH_NOTE_DURATION, EIGHTH_NOTE_DURATION},
    {"C4", NOTE_C4, EIGHTH_NOTE_DURATION, EIGHTH_NOTE_DURATION},
    {"E4", NOTE_E4, EIGHTH_NOTE_DURATION, EIGHTH_NOTE_DURATION},
    {"G3", NOTE_G3, EIGHTH_NOTE_DURATION, EIGHTH_NOTE_DURATION},
    {"A3", NOTE_A3, EIGHTH_NOTE_DURATION, EIGHTH_NOTE_DURATION},

    {"E4", NOTE_E4, EIGHTH_NOTE_DURATION, EIGHTH_NOTE_DURATION},
    {"C4", NOTE_C4, EIGHTH_NOTE_DURATION, EIGHTH_NOTE_DURATION},
    {"G3", NOTE_G3, EIGHTH_NOTE_DURATION, EIGHTH_NOTE_DURATION},
    {"A3", NOTE_A3, EIGHTH_NOTE_DURATION, EIGHTH_NOTE_DURATION},
    {"E4", NOTE_E4, EIGHTH_NOTE_DURATION, EIGHTH_NOTE_DURATION},
    {"C4", NOTE_C4, EIGHTH_NOTE_DURATION, EIGHTH_NOTE_DURATION},
    {"E4", NOTE_E4, EIGHTH_NOTE_DURATION, EIGHTH_NOTE_DURATION},
    {"G3", NOTE_G3, EIGHTH_NOTE_DURATION, EIGHTH_NOTE_DURATION},

    {"A3", NOTE_A3, EIGHTH_NOTE_DURATION, EIGHTH_NOTE_DURATION},
    {"E4", NOTE_E4, EIGHTH_NOTE_DURATION, EIGHTH_NOTE_DURATION},
    {"C4", NOTE_C4, EIGHTH_NOTE_DURATION, EIGHTH_NOTE_DURATION},
    {"G3", NOTE_G3, EIGHTH_NOTE_DURATION, EIGHTH_NOTE_DURATION},
    {"A3", NOTE_A3, EIGHTH_NOTE_DURATION, EIGHTH_NOTE_DURATION},
    {"E4", NOTE_E4, EIGHTH_NOTE_DURATION, EIGHTH_NOTE_DURATION},
    {"C4", NOTE_C4, EIGHTH_NOTE_DURATION, EIGHTH_NOTE_DURATION},
    {"E4", NOTE_E4, EIGHTH_NOTE_DURATION, EIGHTH_NOTE_DURATION}};

#define WET_HANDS_LENGTH 73

const song_struct_t wet_hands[WET_HANDS_LENGTH] = {

    {"A2", NOTE_A2, QUARTER_NOTE_LENGTH, EIGHTH_NOTE_DURATION},
    {"E3", NOTE_E3, QUARTER_NOTE_LENGTH, EIGHTH_NOTE_DURATION},
    {"A3", NOTE_A3, QUARTER_NOTE_LENGTH, EIGHTH_NOTE_DURATION},
    {"B3", NOTE_B3, QUARTER_NOTE_LENGTH, EIGHTH_NOTE_DURATION},
    {"C#4", NOTE_CS4, QUARTER_NOTE_LENGTH, EIGHTH_NOTE_DURATION},
    {"B3", NOTE_B3, QUARTER_NOTE_LENGTH, EIGHTH_NOTE_DURATION},
    {"A3", NOTE_A3, QUARTER_NOTE_LENGTH, EIGHTH_NOTE_DURATION},
    {"E3", NOTE_E3, QUARTER_NOTE_LENGTH, EIGHTH_NOTE_DURATION},

    {"D3", NOTE_D3, QUARTER_NOTE_LENGTH, EIGHTH_NOTE_DURATION},
    {"F#3", NOTE_FS3, QUARTER_NOTE_LENGTH, EIGHTH_NOTE_DURATION},
    {"C#4", NOTE_CS4, QUARTER_NOTE_LENGTH, EIGHTH_NOTE_DURATION},
    {"E4", NOTE_E4, QUARTER_NOTE_LENGTH, EIGHTH_NOTE_DURATION},
    {"C#4", NOTE_CS4, QUARTER_NOTE_LENGTH, EIGHTH_NOTE_DURATION},
    {"A3", NOTE_A3, QUARTER_NOTE_LENGTH, 800},

    {"A2", NOTE_A2, QUARTER_NOTE_LENGTH, EIGHTH_NOTE_DURATION},
    {"E3", NOTE_E3, QUARTER_NOTE_LENGTH, EIGHTH_NOTE_DURATION},
    {"A3", NOTE_A3, QUARTER_NOTE_LENGTH, EIGHTH_NOTE_DURATION},
    {"B3", NOTE_B3, QUARTER_NOTE_LENGTH, EIGHTH_NOTE_DURATION},
    {"C#4", NOTE_CS4, QUARTER_NOTE_LENGTH, EIGHTH_NOTE_DURATION},
    {"B3", NOTE_B3, QUARTER_NOTE_LENGTH, EIGHTH_NOTE_DURATION},
    {"A3", NOTE_A3, QUARTER_NOTE_LENGTH, EIGHTH_NOTE_DURATION},
    {"E3", NOTE_E3, QUARTER_NOTE_LENGTH, EIGHTH_NOTE_DURATION},

    {"D3", NOTE_D3, QUARTER_NOTE_LENGTH, EIGHTH_NOTE_DURATION},
    {"F#3", NOTE_FS3, QUARTER_NOTE_LENGTH, EIGHTH_NOTE_DURATION},
    {"C#4", NOTE_CS4, QUARTER_NOTE_LENGTH, EIGHTH_NOTE_DURATION},
    {"E4", NOTE_E4, QUARTER_NOTE_LENGTH, EIGHTH_NOTE_DURATION},
    {"C#4", NOTE_CS4, QUARTER_NOTE_LENGTH, EIGHTH_NOTE_DURATION},
    {"A3", NOTE_A3, QUARTER_NOTE_LENGTH, 800},

    {"G#4", NOTE_GS4, QUARTER_NOTE_LENGTH, EIGHTH_NOTE_DURATION},
    {"E3", NOTE_E3, QUARTER_NOTE_LENGTH, EIGHTH_NOTE_DURATION},
    {"A3", NOTE_A3, QUARTER_NOTE_LENGTH, EIGHTH_NOTE_DURATION},
    {"B3", NOTE_B3, QUARTER_NOTE_LENGTH, EIGHTH_NOTE_DURATION},
    {"C#4", NOTE_CS4, QUARTER_NOTE_LENGTH, EIGHTH_NOTE_DURATION},
    {"B3", NOTE_B3, QUARTER_NOTE_LENGTH, EIGHTH_NOTE_DURATION},

    {"A4", NOTE_A4, QUARTER_NOTE_LENGTH, EIGHTH_NOTE_DURATION},
    {"E3", NOTE_E3, QUARTER_NOTE_LENGTH, EIGHTH_NOTE_DURATION},
    {"F#4", NOTE_FS4, QUARTER_NOTE_LENGTH, EIGHTH_NOTE_DURATION},
    {"F#3", NOTE_FS3, QUARTER_NOTE_LENGTH, EIGHTH_NOTE_DURATION},
    {"C#4", NOTE_CS4, QUARTER_NOTE_LENGTH, EIGHTH_NOTE_DURATION},
    {"E4", NOTE_E4, QUARTER_NOTE_LENGTH, EIGHTH_NOTE_DURATION},
    {"C#4", NOTE_CS4, QUARTER_NOTE_LENGTH, EIGHTH_NOTE_DURATION},
    {"A3", NOTE_A3, QUARTER_NOTE_LENGTH, EIGHTH_NOTE_DURATION},

    {"E4", NOTE_E4, QUARTER_NOTE_LENGTH, EIGHTH_NOTE_DURATION},
    {"F#4", NOTE_FS4, QUARTER_NOTE_LENGTH, EIGHTH_NOTE_DURATION},
    {"G#4", NOTE_GS4, QUARTER_NOTE_LENGTH, EIGHTH_NOTE_DURATION},
    {"E3", NOTE_E3, QUARTER_NOTE_LENGTH, EIGHTH_NOTE_DURATION},
    {"A3", NOTE_A3, QUARTER_NOTE_LENGTH, EIGHTH_NOTE_DURATION},
    {"B3", NOTE_B3, QUARTER_NOTE_LENGTH, EIGHTH_NOTE_DURATION},
    {"C#4", NOTE_CS4, QUARTER_NOTE_LENGTH, EIGHTH_NOTE_DURATION},
    {"B3", NOTE_B3, QUARTER_NOTE_LENGTH, EIGHTH_NOTE_DURATION},
    
    {"B4", NOTE_B4, QUARTER_NOTE_LENGTH, EIGHTH_NOTE_DURATION},
    {"C#5", NOTE_CS5, QUARTER_NOTE_LENGTH, EIGHTH_NOTE_DURATION},
    {"D3", NOTE_D3, QUARTER_NOTE_LENGTH, EIGHTH_NOTE_DURATION},
    {"F#3", NOTE_FS3, QUARTER_NOTE_LENGTH, EIGHTH_NOTE_DURATION},
    {"C#4", NOTE_CS4, QUARTER_NOTE_LENGTH, EIGHTH_NOTE_DURATION},
    {"E4", NOTE_E4, QUARTER_NOTE_LENGTH, EIGHTH_NOTE_DURATION},
    {"C#4", NOTE_CS4, QUARTER_NOTE_LENGTH, EIGHTH_NOTE_DURATION},
    {"A3", NOTE_A3, QUARTER_NOTE_LENGTH, EIGHTH_NOTE_DURATION},
    
    {"C#5", NOTE_CS5, QUARTER_NOTE_LENGTH, EIGHTH_NOTE_DURATION},
    {"E5", NOTE_E5, QUARTER_NOTE_LENGTH, EIGHTH_NOTE_DURATION},
    {"G5", NOTE_G5, QUARTER_NOTE_LENGTH, EIGHTH_NOTE_DURATION},
    {"B2", NOTE_B2, QUARTER_NOTE_LENGTH, EIGHTH_NOTE_DURATION},
    {"D3", NOTE_D3, QUARTER_NOTE_LENGTH, EIGHTH_NOTE_DURATION},
    {"F#5", NOTE_FS5, QUARTER_NOTE_LENGTH, EIGHTH_NOTE_DURATION},
    {"A3", NOTE_A3, QUARTER_NOTE_LENGTH, EIGHTH_NOTE_DURATION},
    {"F#3", NOTE_FS3, QUARTER_NOTE_LENGTH, EIGHTH_NOTE_DURATION},
    
    {"D3", NOTE_D3, QUARTER_NOTE_LENGTH, EIGHTH_NOTE_DURATION},
    {"B2", NOTE_B2, QUARTER_NOTE_LENGTH, EIGHTH_NOTE_DURATION},
    {"G2", NOTE_G2, QUARTER_NOTE_LENGTH, EIGHTH_NOTE_DURATION},
    {"B2", NOTE_B2, QUARTER_NOTE_LENGTH, EIGHTH_NOTE_DURATION},
    {"D3", NOTE_D3, QUARTER_NOTE_LENGTH, EIGHTH_NOTE_DURATION},
    {"F#3", NOTE_FS3, QUARTER_NOTE_LENGTH, EIGHTH_NOTE_DURATION},
    {"A3", NOTE_A3, QUARTER_NOTE_LENGTH, EIGHTH_NOTE_DURATION}};

#define STRAD_LENGTH 27

const song_struct_t strad[STRAD_LENGTH] = {
    {"D3", NOTE_D3, EIGHTH_NOTE_DURATION, EIGHTH_NOTE_DURATION},
    {"F3", NOTE_F3, EIGHTH_NOTE_DURATION, EIGHTH_NOTE_DURATION},
    {"B3", NOTE_B3, EIGHTH_NOTE_DURATION, EIGHTH_NOTE_DURATION},
    {"G3", NOTE_G3, EIGHTH_NOTE_DURATION, EIGHTH_NOTE_DURATION},
    {"D4", NOTE_D4, EIGHTH_NOTE_DURATION, EIGHTH_NOTE_DURATION},
    {"C4", NOTE_C4, EIGHTH_NOTE_DURATION, EIGHTH_NOTE_DURATION},
    {"B3", NOTE_B3, EIGHTH_NOTE_DURATION, EIGHTH_NOTE_DURATION},

    {"D3", NOTE_D3, EIGHTH_NOTE_DURATION, EIGHTH_NOTE_DURATION},
    {"F3", NOTE_F3, EIGHTH_NOTE_DURATION, EIGHTH_NOTE_DURATION},
    {"B3", NOTE_B3, EIGHTH_NOTE_DURATION, EIGHTH_NOTE_DURATION},
    {"G3", NOTE_G3, EIGHTH_NOTE_DURATION, EIGHTH_NOTE_DURATION},
    {"D4", NOTE_D4, EIGHTH_NOTE_DURATION, EIGHTH_NOTE_DURATION},
    {"C4", NOTE_C4, EIGHTH_NOTE_DURATION, EIGHTH_NOTE_DURATION},
    {"B3", NOTE_B3, EIGHTH_NOTE_DURATION, EIGHTH_NOTE_DURATION},

    {"D3", NOTE_D3, EIGHTH_NOTE_DURATION, EIGHTH_NOTE_DURATION},
    {"F3", NOTE_F3, EIGHTH_NOTE_DURATION, EIGHTH_NOTE_DURATION},
    {"B3", NOTE_B3, EIGHTH_NOTE_DURATION, EIGHTH_NOTE_DURATION},
    {"G3", NOTE_G3, EIGHTH_NOTE_DURATION, EIGHTH_NOTE_DURATION},
    {"F4", NOTE_F4, EIGHTH_NOTE_DURATION, EIGHTH_NOTE_DURATION},
    {"E4", NOTE_E4, EIGHTH_NOTE_DURATION, EIGHTH_NOTE_DURATION},
    {"C4", NOTE_C4, EIGHTH_NOTE_DURATION, EIGHTH_NOTE_DURATION},
    {"A3", NOTE_A3, EIGHTH_NOTE_DURATION, EIGHTH_NOTE_DURATION},

    {"D3", NOTE_D3, EIGHTH_NOTE_DURATION, EIGHTH_NOTE_DURATION},
    {"A3", NOTE_A3, EIGHTH_NOTE_DURATION, EIGHTH_NOTE_DURATION},
    {"F3", NOTE_F3, EIGHTH_NOTE_DURATION, EIGHTH_NOTE_DURATION},
    {"B3", NOTE_B3, EIGHTH_NOTE_DURATION, EIGHTH_NOTE_DURATION},
    {"G3", NOTE_G3, EIGHTH_NOTE_DURATION, EIGHTH_NOTE_DURATION}};

#endif // __DEMO_MELODIES_H__